<?xml version="1.0" encoding="UTF-8"?>
<svg version="1.1" xmlns="http://www.w3.org/2000/svg" xmlns:xlink="http://www.w3.org/1999/xlink" x="0px" y="0px" viewBox="0 0 1739.5 1739.5" enable-background="new 0 0 1739.5 1739.5" xml:space="preserve">
<g id="_x32__x5F_black">
	<circle id="color_10_" fill="#0073FF" cx="869.8" cy="869.8" r="549.2"/>
	<g id="color_9_">
		<g>
			<path fill="#82F50A" d="M377,843c-2.1,2.2-6,7.5-3.7,9.6c2.3,2.2,5.5,3.7,5.5,3.7l4.7-2.3l1.5-0.2c0,0,1.5,1.2,1.5,1.9     s0.1,22.8,1,23.8c1,1,12.1,18.2,15.3,19.3c3.6,1,13.7,3.9,14.9,3.2c0.3-2.5-4.3-5.2-3.6-9s3.2-4.1,2.5-11.9s-3.3-10,0-12.5     c3.3-2.5,7.1-7,11.3-6.9c2,0.1,1.6,2.1,3.8,2.8c1.1,0.4,5.1,3,8.9,0.6s7.5-10.9,13.5-10.8c6,0.1,4.8,8.3,5.9,10.3     s5.1,7.2,4.5,12.1c-0.6,4.9,15.8,20.8,16.6,21.5c0.8,0.8,3,1.4,4.4,2.1s20.7,20.9,20.7,23s-0.8,9.5,4.5,13.6s12,5.1,15,4.8     c3-0.3,17.7-8.4,20.3-8.7s6.3-1.6,8.4,1c2.1,2.6,3.3,4.4,3.8,6.9s2.2,6.9,6.7,7c4.5,0.1,6.8-0.5,10.1-3.3     c3.3-2.9,13.2-11.3,14.2-16.2c0.9-4.9-3.5-18.1-2.3-19.5c1.2-1.4,9.7-20.4,12.1-22.1s19.7-16.5,20.3-16.8c0.6-0.3,1.3-0.4,2-0.4     s2.5,0.4,3.1,1.3c0.6,0.8,2.8,2.9,3.5,3.1s13.4,0.4,15.5-0.4s13.2-7.4,14-7.4c0.8,0,2.4-0.4,2.7,1c0.3,1.4-1.1,5.6,3.5,5.2     c4.6-0.4,7.9-7.7,13.1-7.2c1,0.1,10.9,2.8,14.2,2.2c3.9-0.8,6-2.8,6.7-4.7c0.8-1.9,4.4-5.5,10.2-14.5c0,0,2.2-1.2,3.9-0.4     s3.2,1.1,3.2,2.5c0,1.4-1.4,7.2-1.2,8.7c0.2,1.5-0.1,6.2,4.1,8.8s14.4,6,15.8,7.1s4.5,3,5.3,3c0.8,0.1,21,8.6,21.3,9     c0.3,0.4,1.9,3.2,2.4,4.4c0.5,1.1,7.8,19.3,8.2,20s0.9,3,4.7,3.2c3.8,0.1,7.3,0.1,8.7-1s5.9-8.3,9.5-8.3c3.6,0,6.1,0.7,7.3,2.2     c1.2,1.5,6,6.7,10,6.8c4.1,0.1,8.2-2.6,12.4-3c4.2-0.4,10.8,0.1,14.3-2.7c3.5-2.8,6.7-7.1,5.4-9.6c-1.4-2.5-7-10.5-9.2-11.9     c-2.2-1.4-11.4-2.9-11.8-6.3c-0.3-3.4,6.2-9,7.3-9.4c3.2-1.3,15.1,0.4,16.7,1c1.6,0.6,8.6,5,11.4,5s6.1,1.5,9.2-1.4     s6.7-8.1,6-10.3s-7.8-12-6.7-15.5c1.1-3.5,5.2-5.5,5-8.7c-0.2-3.2-5.9-9.7-6.6-10.3s-2.9-0.9-4.2-1.5s-13.5-17.1-15.6-18.6     c-2.2-1.5-9.1-2.1-11.1-6c-2-4-8-16.3-6.3-19c1.7-2.7,11-7.2,11-7.2s5.6,0.4,7.1-0.8c1.5-1.3,4.8-2.8,4-5.8     c-0.8-3-4.1-8.2-7.2-9.7c-3.1-1.5-6.7-1-7.8-1.8c-1.1-0.8-12.2-15-12.2-15s7.9-21.1,8.1-22.5s0.8-6,2.4-8c2.4-3,6.1-3.8,7.1-3.8     c1.3,0,3.8,2.6,7.3,2.4c1.6-0.1,1.3-4.4,2.8-9c1.5-4.6,1.7-18.8,1.7-18.8s15.4-9,16.6-9.3c1.3-0.3,3.7-1.9,6.5,0     c2.8,1.9,12.6,5.1,14.1,4.2s4.6-2.4,5.7-2.5c2.2-0.1,13.1,7.5,14.1,7.5c1,0,21.2-10.3,21.7-10.5c0.5-0.2,2.9-6.9,7.1-7     c4.2-0.1,6.3,0.1,6.4-0.8c0.1-0.9-3.6-6.3-4.7-6.9c-1-0.5-10.2-2.9-11.5-4c-1.3-1.1,0.2-6.9-2.3-8.8s-18.5-13.3-18.8-14.9     c-0.3-1.6,0.9-5.8,1-7c0.1-2.7-1.3-18.5-2.1-20.3c-0.9-1.8-4.9-10.2-4.6-10.8c0.3-0.5,2.1-6.9,2.1-9.2c0-2.4,7-20.8,6.8-21.7     c-0.2-0.9-6.2-7.7-6-8.7c0.3-1,0.3-2.1,1.3-2.8c1-0.7,4.1-3,5.4-2.9c1.2,0.1,5.1,2.4,7.3,2s6.3-0.7,8.6-2.5     c2.3-1.8,23.7-19.6,25.7-19.7c2-0.1,4.5,0.2,7.7,0.5c6.3,0.7,23.8,5.2,24.9,5.2c1.1,0.1,14.7-4.9,15.6-4.9c1.8,0.1,22,3,23,3.6     c1,0.6,9.5,6.6,10.9,6.5s13.7,1,16.4,1.8c2.8,0.9,20.7,8.9,22.6,10.1c1.9,1.3,21.4,14.7,22.9,15.1s1.4,0.7,3.5,1     c2.6,0.4,8.5-0.5,9.2,0c0.8,0.5,7.8,7.9,8.4,7.8c0.6-0.1,3,0.4,3.7-1s2.5-5.2,2.5-6.1s2.1-10,2.1-10s-16.6-21-18.1-22.4     c-1.6-1.4-6.7-5.7-9.9-6.8c-4.9-1.6-11.4-2.7-14.1-5.6c-2.8-2.9-7.5-15.8-9.4-16.9c-1.9-1.1-12.4-7-13-8.2s-3.1-5.5-3.4-5.9     c-5.5-5.1-8.2-15-6.8-18.3c0.3-0.6,4.8-5.1,5.5-5.3c0.8-0.2,6.2-1,8.8-3c2.6-2,16-12.7,16.9-12.6c1,0.1,3-0.3,4,0.6     c1,0.9,3.6,5.2,5.1,5.9s7.3,0.4,10.3-0.6c1.7-0.6,8.6-4.9,9.6-4.2s1,5.8-1.2,5.8s-4.5,0.1-4.4,1.5c0.1,1.3,1.8,2.9,6.2,4.6     c0.8,0.3,11.5,3.6,14,2.3c1.2-0.6,1.8-1.9,1.6-3.2c-0.3-3.1-1.9-7.9-0.8-7.7s5.7,4.4,5.5,5.4c-0.2,1-1.5,4.8-0.3,5.6     c1.1,0.8,2.6,2.3,3.9,2.1c1.3-0.1,5.7-0.4,6.8,0.2c1.1,0.7,5.5,2.9,8.8,5.9c3.3,3,25.5,13.9,32.3,16.2c6.8,2.2,16.5,3.5,19,4     c2.5,0.5,8.8,1.8,9.9-0.2c1-2.1-3.3-4.2-6.1-5.1c-1.3-0.4-5.7-1.5-5.4-2.8c0.2-0.6,5.4,0.6,6.4,0.9c1,0.2,2.8,0.4,3.3-0.7     c0.5-1.1-1.6-3.4-3.9-4.4c-1.3-0.6-7.4-3.6-7.2-4.8c0-0.8,5,0.5,5.3-0.7c0.3-1.4-3.1-4.7-4.5-5.8c-1.4-1-9.9-5.4-9.9-5.4l0.5-4.4     l-14.3-6.5c0,0-22.2-11.4-23.8-11.6c-3.6-0.4-9.8,3-12.8,3c-3,0-8.3-1.8-10.2-1.9c-1.9-0.1-6.7,0.3-8.4-0.6     c-1.7-0.9-7.6-7.5-9.9-8.7c-2.3-1.3-6.2-3-7.2-4.2c-1-1.2-2.4-5.5-3.1-6.7c-1.4-2.4-6.5-12.2-8.6-14.4c-2.2-2.2-6-4.5-8.9-6     s-4.3-3.3-4.6-4.6c-0.9-3.5-2.9-8.9-3-9.9s0.2-1.8,1.1-2.4c0.9-0.7,4.4-2.9,4.7-4.1c0.3-1.2-3.5-8.9-1.9-12.2l-13.9-31.6     l-214.3-18.9c0,0-36.5,21.7-39.5,23.2c-2.9,1.5-16.1,3.5-18.8,4.9c-2.8,1.3-6.7,5.6-7.2,6.3c-0.5,0.7-2.2,2.4-4.6,3.2     c-3.8,1.3-8.8,0.1-8.9,2.8c-0.1,2.7,5.2,3.4,7.4,3.2c2.1-0.1,8.1-0.7,10.6-2.3c2.5-1.5,7.6-4.2,10.1-4.6s22.4-1.8,24.1,1.5     c0,1-1.1,1.8,1.6,2.8c2.7,1,14.7-0.9,18.1-0.3c4.8,0.7,39.7,6,39.7,6l12.1,18.3l11.8,46.1c0,0-6.6,0.2-9.9,1.2     c-3.3,1-13.6,6.4-15.7,7.3c-2.1,0.9-3.5,1.6-5.9,1.7c-2.4,0.1-10.9-0.1-11.6-0.4s-2.3-1.2-1-2.5c1.3-1.3,2.9-2,2.8-2.7     c-0.7-2.7-11.3-6.4-13.9-6.4c-2.6,0-4.6,0.2-6.3,1c-1.7,0.8-10.8,2.4-14.8,2.3c-4.1-0.1-6.1,2-6.5,3.5     c-0.3,1.5-8.4,16.2-8.5,17.4c-0.2,2.2,0.2,6.2-0.3,6.6c-0.5,0.4-19.5,11.2-25.4,8.3c-1.3-0.7-3.4-0.9-7-1.5     c-1.8-0.3-5.9,2.8-3.2,4.5c2.7,1.7,6.1,4.7,9.3,4.9c5.3,0.2,13.4-1.9,17.5-1.9c4.1,0,6.8,3.9,6.9,6.9     c-0.7,5.5-56.3,27.2-58.8,27.9s-19.7,0-24,0.4c-2.1,0.2-27.4,7.9-29.4,9c-2,1.2-13.6,9.8-14.9,10c-1.3,0.1-5.7-1.7-9.4-0.4     c-10.6,3.8-33.7,0.4-33.7,0.4s-15.6-8-19.1-8.4c-3.5-0.4-7-0.7-9.3,0.2c-2.3,0.9-15.4,8.6-17.9,9.6s-15.3,7.2-17.2,7.6     c-1.9,0.4-24.9,4.7-28.7,6c-3.8,1.3-30.1,13.7-33,14.4c-2.9,0.7-25.3,7.6-26.5,8.4c-1.2,0.8-16.6,15.6-16.6,16.5     c0,0.9,0.8,8.3-1,9.7s-39.6,27.4-40.2,28c-0.6,0.6-23.8,27-24.8,27.7c-1,0.7-41.2,21.2-42.9,22.1c-1.6,0.8-34.1,78.7-34.1,78.7     l8.5,38.4c0,0,13.1,20.4,26.2,18.2C367.3,809.4,379.1,840.9,377,843z M990.3,1327.4c1.6-0.2,3-2.3,3.2-3.7     c0.2-1.4,5.7-0.9,7.7-0.9c2,0,1.1-2.7,2.1-4.3c1.1-1.6,2.7-2.8,2.8-4.8c0.1-2,1.1-3.9,1.1-5.7c0-1.8-1.8-3.2-4.3-4.5     c-2.5-1.2-5.7-0.4-6.9,1.4c-1.2,1.8-3.2,1.6-4.7,1.1c-1.5-0.5-5.3,0-6.6,0c-1.2,0-2-1.2-1.1-2.1c0.9-0.9,2.5-3.9,1.6-4.9     c-0.9-1-6.4-0.6-9.4,0c-3,0.6-10.7,2.2-16.6,1.9c-5.9-0.4-10-2-11.8-2.7s-3.4-2.1-5.6-2.3c-2.2-0.2-3.7,3.9-3.7,6.2     c0,4.6,3.6,5.3,5.2,5.5c1.6,0.2,2.8,3,3.9,5c1.1,2-0.2,7-0.2,7s8.5-0.3,10.7,0s4.6,1.3,4.6,2.4c0,1.1-1.4,2-1.6,2.8     c-0.2,0.9,0.4,3.6-1.1,3.4c-1.4-0.2-1.2-2-2.8-2.3c-1.6-0.4-3.2,0.4-4.1,1.2c-0.9,0.9-0.5,4.8-0.2,5.7s5,0.4,6.1,0.4     s1.4,2.5,2.3,2.7c0.9,0.2,3-0.7,3.2-1.6c0.2-0.9,1.6-1.1,3.2-2.3c1.6-1.2,2.8-1.2,2.8-1.2c0,3.2,0.7,5.5,2.4,8     c1.7,2.5,0.8,4.6,2.4,4.6c1.6,0,4.5-1.1,5.9-1.2s2.5-1.2,3-2.8c0.5-1.6,3-3.4,4.6-3.9c1.6-0.5,0.4-2.1-0.9-3     c-1.2-0.9-2.8-3.2-2.8-3.9S988.7,1327.5,990.3,1327.4z M1268.8,1246.7c-1.1-0.5-1.2-3.2-2.7-3.9s-6.6,0.4-8,1.1s-6.1,5-7.5,5     s-3.4-2.8-3.4-4.1c0-1.2,1.4-4.1,1.4-5.9c0-1.8,1.8-10,2.8-11.4c1.1-1.4,0.5-3.2-2.1-3s-5.2,2-5.7,3c-0.5,1.1-3.4,2.5-5.2,3.6     c-1.8,1.1-4.3,7.5-5.5,9.1s-7.3,5.7-9.3,7.5c-2,1.8-6.8,4.8-7.5,5.2c-0.7,0.4-3.6-1.8-3.6-3.2s1.8-4.8,3-6.1     c1.2-1.2,0.2-3.4-1.1-3c-1.2,0.4-5.3,1.1-6.8,2s-7.3,4.3-8,5.7s-3.7,3.4-4.6,3.4s-1.1-2-1.8-3.2c-0.7-1.2-0.9-8-0.5-9.3     c0.4-1.2,2.3-1.8,2.3-3s-3-1.8-4.3-1.4c-1.2,0.4-4.3,3-5.5,3.7s-2-0.5-2-1.2s-3.4,0.5-4.6,1.4c-1.2,0.9-3.9,5-5.7,5.3     c-1.8,0.4-2.3-1.1-2.3-2.3s-0.5-2.7-1.8-2.8s-2.8-2.1-2.8-2.1s1.6-0.4,2.7-0.5c1.1-0.2,3.2-1.6,4.8-1.6c1.6,0,3.2-0.7,3.7-1.4     s-0.4-3-1.6-4.8c-1.2-1.8-4.1-1.4-4.8-2.7c-0.7-1.2-3.6-2.3-4.8-3.2s-2.7-2.8-1.1-3c1.6-0.2,5.7-3.4,6.9-4.8     c1.2-1.4,0.2-3.2-2.3-3.9c-2.5-0.7-7.8-4.6-10.7-6.4c-2.8-1.8-6.2-6.1-6.6-8.5c-0.4-2.5-1.4-5.9-2.5-5.9c-1.1,0-3.4,5.9-3.9,9.6     c-0.5,3.7-5.7,9.8-8.4,13c-2.7,3.2-19.2,13.5-21.2,14.4c-2,0.9-0.2,2.7,1.8,3.4s5.7,0.4,7.7-0.4c2-0.7,2.5,0.5,2.7,1.6     c0.2,1.1-4.3,5.5-6.5,7.5s-7.5,5.9-8.7,6.2c-1.2,0.4,1.4,3,2.8,3.7s6.8,0.4,8.4-1.2c1.6-1.6,3.4-2.7,3.9-1.4c0.5,1.2-2.8,3-4.6,5     c-1.8,2-6.6,6.2-8.5,7.7s-3.6,2.7-2,3.6s6.8-0.2,6.8-0.2s-2.5,4.8-4.5,6.6c-2,1.8-5.9,4.1-9.6,9.4c-3.7,5.3-10.7,18.5-10.7,18.5     c-2.5,0.7-10.1-0.7-12.3-0.7s-9.6,0.9-13.2,0.4s-3.6-3.2-2-4.5s5.2-1.8,6.6-1.8s2.1,1.4,2.8,0.9c0.7-0.5,1.8-2.7,1.2-3.4     s-5-1.2-6.6-1.6c-1.6-0.4-9.1-0.9-9.1-1.6s4.8-1.2,6.1-1.6c1.2-0.4,1.1-2.1,0-3.7c-1.1-1.6-1.1-4.5-1.8-5     c-0.7-0.5-2.1,1.1-3.4,1.8c-1.2,0.7-4.3-1.8-5.5-2.3c-1.2-0.5-4.3-1.2-5.9-2.5c-1.6-1.2-4.6-1.1-6.1-3.6     c-1.4-2.5-2.7-8.9-3.6-10.3s-2.5,1.8-3.7,4.5c-1.2,2.7-2.5,6.1-3.7,9.8c-1.2,3.7-3.7,5.9-5.3,6.4s-2.5,1.6-2.7,3     s-1.6,2.3-3.2,4.1c-1.6,1.8-3.6,5-0.4,5s4.8-2,6.1-2.7c1.2-0.7,2.5-0.4,2.5,0.4s-1.4,3-4.5,4.6c-3,1.6-7.3,1.8-8.5,1.8     c-1.2,0-1.1,2.7,1.8,3.9c2.8,1.2,4.6-0.5,5.9-1.1c1.2-0.5,3.6-0.2,3.6-0.2c0,3.7-2.3,7.7-4.6,8.7c-2.3,1.1-5.2,0.4-5.2,1.8     s-0.9,3.7-2.5,3.7c-1.6,0-1.4,3.2,0.4,3.2s3-3.4,4.1-3.4s3.2,0.5,3.2,2.5s-7.7,15.3-9.3,17.1c-1.6,1.8-7.5,1.6-10.5,1.4     c-3-0.2-6.4-2.3-6.9-1.4c-0.5,0.9,0.7,6.6,1.4,10.7s0,6.9-3.4,10c-3.4,3-9.1,2.7-11.2,2.7s-3.9,2.7-5.9,3.4     c-2,0.7-1.6-0.7-3.6-0.4c-2,0.4-2.7,2.8-3.9,2.8c-1.2,0-4.3,0.7-5.2,1.1c-0.9,0.4-2.5-1.1-2.5-1.1c3-2.1,6.1-2.5,7.7-3.6     c1.6-1.1,2.3-1.8,2.3-3c0-1.2-2.1-2.8-3.4-3.2c-1.2-0.4-4.3,0.2-6.1,0.5c-1.8,0.4-5.7,3.2-9.8,4.1c-4.1,0.9-12.5,1.2-15.1,1.2     c-2.7,0-7.1-0.5-7.1-0.5s6.9-4.5,7.5-6.2c0.5-1.8,0.9-4.1-0.5-3.9c-1.4,0.2-12.1,2-17.1,2.5s-16.9,2.5-22.4,2.5     c-5.5,0-12.5-2.5-14-3.4c-1.5-0.9-3.8-1.2-5.8-1.2c-2,0-8.2-1.1-11.4-2.3c-3.2-1.2-21.5-7.8-24.2-8c-2.7-0.2-3,0.9-2.1,1.6     c0.9,0.7,13,12.6,16.6,15.5s6.2,11.2,6.2,11.2c-3,1.1-1.1,3,0.4,4.3s1.6,0.2,2.8-1.1c1.2-1.3,2.7-0.3,4.1,2     c1.4,2.3-0.9,3.7,0,5.2s0.5,3,0,4.5c-0.5,1.4-1.8,9.1-0.5,9.6c1.2,0.5,4.6-0.7,5.7-1.8c1.1-1.1,5.7-2.3,7.7-1.6     c2,0.7,4,5.3,4,7.8c0,2.5-1.8,5.7-3.5,6.2s-3.8-0.5-4.4-1.4c-0.5-0.9-3.7-1.8-5.3-1.4c-1.6,0.4-2,4.5-1.1,5.7     c0.9,1.2,5,1.2,6.1,2s-0.5,2.7-1.6,3.2c-1.1,0.5-4.6-0.4-6.4,2.1c-1.8,2.5-1.2,5-1.6,6.2c-0.4,1.2-3.4,1.1-2.7,2     c0.7,0.9,8.7,0.2,9.6-0.4c0.9-0.5,2-3.7,3.2-4.5c1.2-0.7,4.8,0.7,5.5,0.4s2-2.3,3.2-2.8c1.2-0.5,5.5-3,7.8-4.1     c2.3-1.1,8.5-0.2,9.8,0c1.2,0.2,5.7,5.7,5.7,7.3c0,1.6-1.6,2.3-0.9,3.2c0.7,0.9,2,3,0.4,5.3c-1.6,2.3-4.1,3.2-5.5,3.4     c-1.4,0.2-3-1.2-3-2.1c0-0.9-0.7-1.8-1.8-1.1c-1.1,0.7-4.8,2.8-6.9,3.9s-5,1.2-6.1,0.9c-1.1-0.4-0.7-2.3-0.7-2.3     s-10.2,3.6-14.4,3.9c-4.3,0.4-13.9,1.1-13.9,1.1s8.7,2.8,12.3,4.5c0.8,0.4,1.7,1,2.5,1.6c136.4-1.7,261-51.6,357.8-133.6     c-1.2,0-2.8-1-3.8,0c-1.1,1.1-1.8,1.3-2.6,0c-0.8-1.3-2.1-2.2-3.1-1.4c-1.1,0.7-0.7,2.5-1.6,3.6c-0.9,1.1-2.1,2.3-3.9,1.4     c-1.8-0.9-3.7-1.4-5.5-2.1c-1.8-0.7-3.6-2.7-4.8-3.7c-1.2-1.1-2.9-3.2-2.7-4.6c0.2-1.4,1.4-5.9,3.4-7.7c2-1.8,3.9-2.5,4.6-5.2     c0.7-2.7,1.8-5.2,4.1-6.6s6.8-1.2,8.4-2.7c1.6-1.4,3.9-3.6,6.4-4.5c2.5-0.9,5.9-4.3,8.7-5.3c2.8-1.1,7.5-2.3,7.7-1.6     s-1.8,3-2.8,5.5c-1.1,2.5-3.2,9.1-3.4,11.1c-0.2,2.1,2.1,0.8,3.2,1.5c1.1,0.7,0.9,1.8,0.2,3s-0.5,5.2,0,6.2     c0.3,0.5,0.1,1.5-0.4,2.6c4.6-4.1,9.1-8.4,13.6-12.7c-2.4,0.8-6.8-0.3-7.5-1c-0.7-0.7-1.6-4.8-0.7-6.9s6.4-6.8,9.8-9.4     c3.4-2.7,6.8-4.5,8.9-5.7s2.8-3.4,3.2-5C1274.4,1248.6,1269.9,1247.2,1268.8,1246.7z M832.3,1396.9c-3.1,0-5.9,0.5-8.1,0     c-2.1-0.5-5.8-7.1-10.1-7.3s-6.6-2.4-10-3.1c-3.3-0.7-12.3-2.1-15.2-2.1s-5.5-2.6-7.6-2.6s-5.9-0.7-7.4-1.9     c-1.4-1.2-6.2-1.9-8.5-1.9c-2.4,0-7.4-4.7-10.7-4.7c-3.3,0-5.9,0.7-7.6,1.4s-5.5,1.9-6.4,1.4s-6.2-2.4-9.3-3.3     c-3.1-1-6.9-4-6.9-6.2s5-4.7,7.1-4.7s5.5,2.4,5.5,3.8s-1.7,0.9-1.7,2.6s1.9,3.6,4.3,3.6c2.4,0,4.5-0.5,6.2-1.2     c1.7-0.7,2.8-2.4,4.3-2.4s2.8-2.1,2.8-3.3c0-1.2-1.7-1.7-2.8-1.9c-1.2-0.2-1.2-3.1-2.4-4.5s-4.5-1.9-7.1-2.4s-5.7-4.5-7.8-4.5     H722c-2.1,0-2.4-1.4-2.4-2.6s-0.7-4.3-2.8-6.9c-2.1-2.6-5.7-4.3-8.1-4.5s-5.2-3.3-6.2-4.3c-0.9-1-6.4-1.4-8.1-1     c-1.7,0.5-2.1,2.6,0.5,4c2.6,1.4,3.3,3.1,2.6,3.3s-6.3-0.5-7.9-1.9c-1.6-1.3-7.8,0-9.9,0s-6.9-4.5-8.1-5.9s-2.4-7.1-3.6-9.3     s-7.1-8.8-10.4-11.9c-3.3-3.1-8.1-13.5-9-15.4c-1-1.9-5.2-6.6-6.9-8.8s-8.1-17.1-9.5-18.8c-1.4-1.7-16.9-15-21.5-16.6     c-4.6-1.6-18.7-8.3-22.7-10.7c-4-2.4-8.8-10-11.4-13.8c-2.6-3.8-11.2-14-16.1-17.2c-5-3.2-25.6-14.6-28.7-16.2     c-3.1-1.7-19.5-14-20.9-15.4s-5.7-11.4-7.6-14c-1.9-2.6-15.2-18.5-20.2-23.5s-23.7-19.5-25.9-20.2s-9-0.5-10.4-0.9     c-1.4-0.5-8.8-9-10.4-10.9c-1.6-1.9-1.3-4-2.7-6.9s-19.9-28-20.9-29c-1-0.9-0.5-3.8-1.7-4.7c-1.2-1-8.8-6.2-10.2-7.4     c-1.4-1.2-1.4-5.5-2.4-7.4c-1-1.9-4.7-10.4-6.2-11.9s-4.5-0.5-5.9,0c-1.4,0.5-4,4-4.7,4.9c-0.7,0.9-3.1,0.5-4.3,0.1     c-1.2-0.5-2.6,2.4-3.6,3.8c-0.9,1.4-4,3.2-4.7,5.9c-0.4,1.5-0.9,8.2,0,10.5c0.9,2.3,38.1,96.3,38.3,97.6c0.2,1.2,50.7,68,50.7,68     s40.2,50.6,45.2,56.1s20.7,18.3,26.7,24.8s16.6,13.5,19.4,16.2c2.8,2.7,203.5,94.5,295.2,98.5l-1.6-25.3     C839.4,1401.2,835.3,1396.9,832.3,1396.9z M571.3,1084.4c0.1,2,2.2,4.5,5.2,4.7c3,0.2,14.8-0.5,19.1-4.5     c4.3-3.9,4.9-8.9,6.6-10.7c1.7-1.8,7.8-8.6,9.6-10.2c1.8-1.6,17.2-22.4,25.1-26.2c1.8-0.9,4.8-0.4,6.9-1.8     c2.1-1.4,3.4-2.8,3.5-4.3s-0.1-5.6-0.9-7s-5.5-8.2-7.7-8c-2.2,0.2-5.2,6.3-6.6,7.8c-1.4,1.5-3.4,3.9-5.1,4.1     c-1.7,0.2-2.2,0.6-3.7-1.7c-1.5-2.4-6-16.3-10.9-23c-8-10.9-9-21.7-14.7-22.7s-9,2.3-11.9,2.9c-7.7,1.6-11.1,3.8-14.2,5.7     c-5.4,3.1-21.1,29.5-21.4,31.4c-0.7,5-0.7,10.4,0,12.3c0.8,1.8,2.2,3.9,4.7,5.5c4.9,3.2,24.6,24.7,26,25.9c1.4,1.2,4,3.9,3.1,6     C580.7,1078.5,571.2,1080.6,571.3,1084.4z M840.9,1014.9c-2.1-0.2-4.5,2.5-5.1,3.7c-0.6,1.2-4,7-4,7.9s-0.2,3.4,0,3.6     c0.2,0.2,3.7,5.3,4.5,5.4c0.8,0.1,4.9,0.5,5.7,0c0.8-0.5,2.6-1.2,4.2-5.1s1.3-5.5,1.2-7.1S844.4,1015.3,840.9,1014.9z      M955.4,1042.3c-0.3-0.5-2.5-1.1-3.2-0.5c-0.6,0.6-4.4,3.6-4.9,3.8c-0.5,0.2-4.2,0.8-6.3,0.8s-3.2-0.5-4.5-0.5     c-1.3,0-5.7,0.5-6.6,4.6c-0.9,4.1,1,10.8,1.4,12.1c0.4,1.4,2,3.9,4.4,4.5c2.4,0.6,6,1.5,8.4,2.4c4.1,1.5,8.9,5.7,8.2,7.9     c-0.3,0.9-0.7,3.4-1.1,4.2c-0.4,0.9-0.7,3.3-0.8,4.2c-0.1,0.9,0.1,2.2,1.2,3.1c2.5,2.1,10.1-0.9,10.9-8.4c0.1-0.8-2-4.1-2-6.3     c-0.1-5.4-0.6-13.3-1-15c-0.3-1.4-4.1-8.5-4.1-10.3S956.1,1043.4,955.4,1042.3z M1122.3,656.5c-0.9,2.2-0.8,3.4,0.6,4     c1.4,0.5,11.6-2.8,13.7-3.9c2.1-1.1,18.5-27.7,18.5-27.7l5.9-29.4c-5.3-1.2-7.1,3.8-7.9,5.7c-0.8,1.9-3.7,4.7-5.8,5.6     c-2.1,1-3.8-0.2-5.2-0.8c-1.2-1-2-2.9-3.2-3.2c-1.2-0.3-7,2.6-8.2,3.4c-1.4,0.9-3.8,3.3-4.3,6.2c-0.5,2.9,0.2,3.7,0.3,8.6     c0.1,4.9-2.5,5.8-3,7.9c-0.5,2.1,4,11.6,3.5,13.9C1126.8,649.3,1123.6,653.3,1122.3,656.5z M1188.6,625.7     c0.6-1.8-3.1-5.1-3.2-7.3c-0.1-2.2,0.3-9.8-2.1-11.7c-2.7-2.1-11.1-8.3-13.4-8.2l-6.8,28.1c0,0,4.5-0.2,5.6-0.2s1.2-1.4,4.2-1     c3,0.4,5.7,1.6,8.9,1.6C1185,627.1,1188.1,627.5,1188.6,625.7z M1208.1,634.5c1.8-1.4,2.6-1.4,3.3-4c0.6-2.5,1.1-7-1.6-7.9     c-2.7-0.9-4,3.2-6.4,4c-2.7,0.9-9.6,1.4-9.6,5c0,1.2,1,3,5.3,3.4C1203.3,635.4,1206.4,635.9,1208.1,634.5z M1204.1,590.8     c-1.7,0.5-4.4,0-6-0.8c-1.6-0.8-4.2-3-7.5-2.8c-3.4,0.2-3.5,5.6-3.5,5.6l23.2,12.6c6.5,0.5,10.8-1.5,11.4-2.6     c1.1-2,2.8-4.5,3.3-6.5c0.4-1.6-0.2-2.4-0.6-3c-0.3-0.6-3.7-0.5-7-0.4c-1.6,0-3.3-1.2-5.3-2.1     C1209.2,589.6,1207.8,589.6,1204.1,590.8z M1186.2,657.3c1.5,0.6,5.5,0.5,8.5-0.5c3.1-1,4-1.3,4-2.5c0-1.2,1.1-8.2-5-8.9     c-1.8-0.2-3.3,1-4.2,2.4s-3.5,5.4-3.9,6C1185,654.9,1184.7,656.7,1186.2,657.3z M1393.5,932.9c-0.2-2.1-2.2-4-4.3-3.6     c-1.4,0.3-2.4,1.5-3.7,2.2c-3.7,1.9-8.2-2-8.4-6.1c-0.2-4.1,2.5-7.8,5.4-10.7c1.1-1.1,2.7-4.4,3.4-5.8c1.8-4-1.9-6.3-1.5-10.6     c0.3-3.6,2.8-6.5,4.7-9.5c1.9-3,2-6.6,0.9-10c-1-3-4.1-2.5-6.5-2.9c0.3-6.1-3.9-10-6.6-17.1c-1-2.7,2.1-9.2,1.3-12     c-1-3.7-3.6-1.7-3.9-5.3c0,0-1.4-20.1-3.4-21.5c-2-1.4-5.6,0.1-5.1-3.2c0.4-3.3,4.6-7.2,5.5-8.6c0.9-1.4,7.2-12.7,7.6-18.3     c0.4-5.6,0.4-11.6-0.7-13.7c-1.2-2.1-25.4-56.5-25.4-56.5s0.5-3.9,0.6-6.2c0.1-2.3-4.1-13.5-5.3-16.4c-1.3-2.9-9-17-12-19.5     c-3-2.5-4.5-3.4-4.3-4.8c0.2-1.4,0.4-2.2,0.5-3.5c0.1-1.4-2.7-5.8-5.9-8.5c-3.7-1.7-5.3-2.2-7.8-1.5c-3.1,0.9-4.9,2.8-6.3,2.7     c-2.5-0.1-4.7-1.2-7.2-1.3c-2.5-0.1-22.1,5.7-23.3,6.3c-1.1,0.5-5.2,6.1-6,6.9c-0.9,0.8-5.8,4.7-7.2,4.8c-1.4,0.2-4.9-5-5.8-5     c-0.9,0-2.9-0.6-5.6,0c-2.7,0.6-9,4.1-9.5,5.7c-0.5,1.7,1.6,8,1.6,9c0,1,0,1.6-1.3,2.1c-1.3,0.5-4.6,0.8-5.8,1.6     c-1.2,0.7-15.5,9.3-15.9,13.2c-0.4,3.8,0.1,19.2,1.4,22.1c1.3,2.9,2.7,7.5,3,8.9c0.3,1.4,2.6,3.5,4.3,4.3c1.7,0.8,6.4,4,6.5,8.9     c0.1,4.8-8.1,24.9-8.1,25.4c0,0.5,0.5,1.7,1.2,2.1c0.6,0.4,14.2,0.7,15,1.9c0.7,1.2,5.3,6.4,5.6,7.9c0.2,1.5-5.4,9.7-5.9,10.4     c-0.3,0.4-2.5,1.3-4.6,1.8c-1.8-0.3-3.4-1.3-4.4-2.5c-0.5-1.2,1.2-3,0.3-4.2c-0.9-1.2-4.5-4.8-4.9-4.8c-0.4,0-1.5-0.1-2.2,1     s-7.6,11.2-7.1,12.1c1,2,3.5,6.7,3.5,8.6c0,1.9,0.8,7.1,1.5,8.5c0.6,1.4,3.4,19.2,4.6,20.4c1.2,1.2,3.4,2.6,3.5,3.4     c0.1,0.8-0.6,3.9-3.2,5.8c-2.6,1.8-6.6,4.6-9.2,3.9c-2.6-0.6-7.9-8.5-8.6-10.5c-0.5-1.5,6.8-12.6,6.3-14.8     c-0.5-2.2-6.6-12-7.8-11.8c-1.2,0.2-2.2,4.6-2.2,5.7s0.4,6.3-0.3,7.2c-0.6,0.9-2.6,2.9-3.3,2.6s-9.1-14.8-9-16.1     c0.1-1.3,0.4-4.8-1.5-8.2c-1.9-3.4-11-15.3-11.6-17.8s-1.4-8.5-3-9.8c-1.6-1.3-10.4-7.3-12.3-10.2c-1.9-2.9-22.5-33.2-26.6-36.4     c-4.2-3.2-13.1-8.1-20.1-9.4c0,0-10.4-3.6-13.1-5.6c-2.7-2-13.2-17.5-16.2-20.5c-3-2.9-37.6-42.5-39.2-43.8     c-1.6-1.4-7.6-9.1-7.8-10.4c-0.2-1.3,3.2-14.9,3.3-16.5c0.1-1.6-4.7-10.2-6.5-10.2c-1.8,0-6.2,9.2-6.5,10.2     c-0.3,0.9,1.5,6.7-0.3,7.8s-9.7,1.2-14.3,4.6c-4.6,3.4-5.8,5.2-4.6,7.3c3.1,5.5,6,1.1,9.3,6.6c2.9,4.8,17.7,24.1,20.2,29.6     c2.6,5.5,5.1,9.2,9.2,14.1s23.1,37.3,22.5,40.3c-0.6,3,1.5,24.2,1.9,25.5c0.4,1.3,5.7,22.5,7.3,23.8c1.6,1.3,9.4,20.6,10.6,22.4     c1.2,1.7,27.2,38.8,30.2,40.9c3,2.1,21.3,42.1,22.5,44.1c1.2,2,4.6,5.8,9.2,7.8c4.6,1.9,6.5,4.2,7.5,7.7c1,3.5,6.8,27,8.1,30.1     c1.4,3.1,12.9,26.1,12.9,26.1l26.6-21.3c2-1.5,4.4-4,5.4-6c1-2,0.9-5,4.4-7.5c3.5-2.5,14-10.2,15.5-11.4c1.5-1.2,2.8-1.8,3.3-4.5     c0.5-2.6,0.9-7.2-1.5-10.7c-2.4-3.5-7.7-7.9-9-10.5s-3-6.7-3-9c0-2.3,0.2-6.4,1.7-6.3c1.5,0.1,11,4.4,11.6,6.3     c0.5,1.9,4.1,18.5,4.7,19.4c0.6,0.9,9.4,7.6,8.3,9.3c-1.1,1.7-4,4.2-3.9,7c0.1,2.8,0.1,5.4,1.4,7.5c1.3,2.1,3.2,4.7,9.1,2.3     c5.7-4.5,14.3,0,15.2,5.3c0.7,4.9-2.9,9.2-6,13.1c-0.6,0.7-1.2,1.6-0.8,2.5c0.3,0.7,1,1,1.7,1.2c7,2.6,14.1,4,21.2,1.9     c2.8-0.8,6.7-5.2,8.4-2.8c0.7,1,1.4,4.5,2.2,5.5c1.5,1.8,4.3,1.1,6.6,1.5c4.6,0.8,8.3,6.3,12.8,4.9c-0.4-2.4,2-4.8,4.4-4.5     s4,3.4,2.9,5.6c8.1,2.9,16.5-4,25.1-3.9c1.2,0,2.5,0.2,3.5-0.4c1.5-0.8,2-2.5,2.8-4c4.4-8.5,17.2-8.1,23.7-15.1     C1392.6,937,1393.7,934.9,1393.5,932.9z M480.2,544l16.4,0.9l18.9-14.4l20.2,8.9l32-21.7c0,0,8.5-1.4,12.8-1.6     c4.3-0.2,15.6,0,15.6,0l26-29.1l38.1,1.2l7.8-9.3l22-17.6c0,0,21.3,7,30.4,10.7l57.8-29.5l6.1-40.7H759l-12.8-1.7     c0,0-4.3,0-5-1.4c-0.7-1.4,1.8-4.2,2.5-5c0.7-0.8,1.8-1.1,1.5-2.8s-12.6-9.7-12.6-9.7c-0.8-0.9-2.8-2.7,0.2-4.6     c3-2,15.9-10.3,15.9-10.3l-17.7-12.9l-39.4,12.3l-68.5,22.7c0,0-139.1,97.3-153.9,127.8l-5.5,9.2l22.8,3.4L480.2,544z"/>
		</g>
	</g>
	<path id="line_8_" d="M869.8,304.4c-312.2,0-565.3,253.1-565.3,565.3s253.1,565.3,565.3,565.3s565.3-253.1,565.3-565.3   S1182,304.4,869.8,304.4z M1124.5,1337.8c-1.1-0.1-2.1,0-3.2-0.1c-39.6-3.6-87.3-33.1-142.7-87.8c44.4-26.8,88.2-58.3,130.4-93.6   l0.6-0.5c42.4-35.6,81.2-73.6,115.5-112.9c44.3,64,65.1,116.2,61.8,155.9c-0.1,0.9-0.3,1.8-0.4,2.7l0,0   C1242.3,1257,1187.2,1303.5,1124.5,1337.8z M819.1,1400.3L819.1,1400.3c-13.3-4-27.2-9.1-41.5-15.7c-20.7-9.6-40.7-21.5-59.8-35.5   c40-5.2,82.8-16.3,127.4-33.3c39.5-15,79.5-34.6,119.2-57.7c51.2,51,96.7,81.8,136.2,92c-69.9,33.7-148.2,52.6-230.8,52.6   C852.7,1402.8,835.8,1401.9,819.1,1400.3z M383.6,1087.8c-0.7-1.9-1.3-3.9-1.9-5.9c7.7,5.8,15.6,10.8,23.3,14.8   c35.7,18.8,79.2,26.9,128.7,24.3c8.3,21.1,17.4,41.9,27.8,62.2c33.2,62.6,71.7,113.6,115,152.8c-22.2,0.6-43.3-0.8-62.7-4.6   c-5.9-1.2-11.5-2.6-17-4.2C503.4,1271.4,428.6,1187.7,383.6,1087.8z M336.7,869.7c0-33.8,3.3-66.8,9.3-98.9   c4.1,15.7,10.9,29.2,20.1,40.2c-10,36.2-17.2,76.2-19.8,120.7c-0.7,12.1-0.8,23.8-0.6,35.4l0,0C339.9,935.5,336.7,903,336.7,869.7z    M376.3,668.5c24-38,54.6-68.9,91.5-92.1c-0.3,10.2,1.7,19.4,6.3,27.1c-34.4,43.7-75.7,104.7-102.2,188c-10.7-17.5-15.6-41-14.3-69   C362.9,704,369.1,686,376.3,668.5z M587.8,417.7L587.8,417.7c31.1-19.5,64.3-35.9,99.3-48.7l0,0c-21.3,15.2-40.5,33.1-57.4,53.6   c-14.6,1.5-30.8,6.3-47.4,14C583.2,430.8,584.9,424.4,587.8,417.7z M813.2,339.7L813.2,339.7c28,3.6,50.4,12.5,65.9,26.2   c-86.6,11.6-153.8,41.6-202.9,68c-6.8-5.9-15.5-9.4-25.6-10.9c29.4-32.4,65.3-57.1,107-74.2l0,0   C775.8,344.8,794.4,341.7,813.2,339.7z M1367.4,679.1L1367.4,679.1c0.6,6.3,1.1,12.7,1.2,19.4c0.3,19.5-2,40.2-6.3,61.5   c-31.1-49.3-74.6-96-130.4-139.5c-18.1-13.7-37-26.2-56.3-38.1c11.2-48.3,10.8-92.6-1.5-131c-2.7-8.3-6.2-16.9-10.6-25.5   c1.7,0.9,3.5,1.8,5.2,2.8h0C1258.1,489.5,1328,576.8,1367.4,679.1z M499,854.3c12.8-1.2,26.1-3.4,39.8-6.6   c37.6-8.9,77.3-25.3,117-47.7c31.8,68.4,72.3,144.7,123.6,223c-82.5,46.9-164.3,75-235.3,81.1C510.9,1015.4,499.7,929.2,499,854.3z    M527.2,1105c-43.7,1.6-82.8-5.7-114.8-22.5c-14.8-7.8-27.7-17.7-38.9-29.3c-8.9-36.5-13.7-76.8-11-120.6   c2.3-39.6,8.3-75.8,16.9-108.7c26.2,21.7,61.6,32.3,103.4,31.2C483.6,942.9,498.4,1026.6,527.2,1105z M838.2,647   c29-35.2,52.1-71.5,67.3-107c5.6-13,10-25.7,13.4-38.1c73.7,13.6,156.6,39.7,238.1,87.8c-18.3,68.9-60.2,144.6-120.7,217.7   C968.1,743.4,900,690.2,838.2,647z M1025.9,819.8c-31.6,36.7-67.9,72.6-108.2,106.4l-0.5,0.4c-40.4,33.9-82.1,63.4-123.7,88.2   c-51.3-78.4-91.8-154.7-123.5-223c28.5-17.1,56.8-37.2,84-60.1c27.3-22.9,52-47.2,73.8-72.3C889.5,702.5,957.6,755.6,1025.9,819.8z    M922.6,486.1c8.3-40.9,4-77.7-12.8-107.2c33.9-2.7,70.5-2.3,110,2.3c43.6,5,82.4,16.7,116.8,31.8c9.5,13,17,27.5,22.1,43.4   c11.1,34.4,11.4,74.2,2.3,116.9C1088.8,531.3,1008.9,502.2,922.6,486.1z M906.6,483.1c-97.8-16.2-177.8-11-216.5-6.5   c1.2-11.1-0.1-21.2-4.1-29.7c49.5-26.4,117.8-56.3,205.7-66.2C909.8,407.7,914.8,443,906.6,483.1z M686.7,493.3   c31.5-4,113.7-10.9,216,5.8c-3.1,11.2-6.9,22.7-12,34.5c-14.8,34.5-37.4,69.8-65.8,104.1c-64.2-44-120.6-76.7-162.1-98.9   C674,523.6,682.2,508,686.7,493.3z M814.5,650.2c-21,23.9-44.7,47.3-70.9,69.2c-26.2,21.9-53.2,41.3-80.5,57.8   c-32.2-71.1-54.4-132.3-68.8-176.5c10.5-6.2,21-13.6,31.1-22.1c10.1-8.5,19.2-17.5,27.2-26.8C693.7,573.6,750.1,606.1,814.5,650.2z    M649.1,785.3c-38.7,22-77.4,38.1-113.9,46.7c-12.5,3-24.5,4.7-36.1,5.8c1.3-103.7,22.4-183.4,31.8-213.7   c15.2-1.9,32-7.2,49.1-15.6C594.5,653.2,616.9,714.4,649.1,785.3z M642.5,1100.8c48.1-14.6,97.3-36.4,146-64.3   c13.9,20.8,28.3,41.7,43.8,62.6c42.9,59.4,83.1,108.4,120.4,147.2c-37.8,21.7-75.7,40.2-113.2,54.4c-49.6,18.9-96.7,30.2-139.9,34   c-46.9-39.2-88.4-92.3-123.8-159c-9.6-18.7-17.9-37.4-25.4-56C579.3,1116.9,610.1,1110.7,642.5,1100.8z M845.3,1089.6   c-15.1-20.5-29.3-41-42.9-61.4c42.4-25.3,84.4-55,125.1-89.2l0.5-0.5c40.6-34.1,77.2-70.3,109.5-107.6c17.7,17,35.5,34.5,53,53   c51.9,53.5,93.5,101.9,125,145.3c-34.4,39.8-73.5,78.3-116.3,114.2l-0.6,0.5c-42.6,35.7-86.9,67.3-131.7,94.2   C929.6,1199.6,889.1,1150.1,845.3,1089.6z M1102.2,872.8c-17.9-18.8-36-36.7-54.1-54c36-43.2,65.9-87.8,88.7-132.7   c15.3-30.2,26.8-59.4,34.7-87.4c17,10.6,33.9,22,50.6,34.7c59.5,46.4,104.5,96.3,134.9,149.2c-11.3,42.2-30.8,87.1-58.3,133.1   c-20.4,34.1-44.9,68-72.6,101.1C1194.4,973.3,1153.1,925.3,1102.2,872.8z M1056.9,370.7c-11.4-2.3-23.1-4.3-35.3-5.7   c-44.2-5.2-84.9-5-122.3-1.4c-9.2-11-21.3-20-36-26.8c2.1,0,4.2-0.2,6.4-0.2C935.6,336.7,998.7,348.8,1056.9,370.7L1056.9,370.7z    M668.3,448.6c19.1,22.8-5.8,77.7-53.3,117.6c-47.5,39.8-105.9,54.8-125,32c-19.1-22.8,5.8-77.7,53.3-117.6   C590.8,440.8,649.2,425.9,668.3,448.6z M485.3,615.4c7.7,5.5,17.4,8.5,28.5,9.2c-11.1,37.3-30.2,115.2-31.2,214.3   c-40.9,1-74.8-10-98.3-32.4C409.4,721.6,450.6,659.6,485.3,615.4z M641.5,1351.3L641.5,1351.3c16.9,1.4,34.5,1.4,52.9,0.1   c18.1,14.6,37,27.2,56.7,37.9l0,0C712.9,1380.6,676.1,1367.8,641.5,1351.3z M1235.7,1030.3c29.3-34.8,55.3-70.5,76.8-106.4   c24.8-41.4,43.3-82.1,55.5-120.9c10.6,21.4,18.9,43.2,24.8,65.5c4,15,6.6,29.4,8.2,43l0,0c-7.8,99.7-43,191.8-98.2,268.6   C1299.4,1139.4,1277,1089.3,1235.7,1030.3z M1402.1,843.4c-7.1-21.4-16.4-42.5-27.8-63.1c4.5-18,7.5-35.6,9.1-52.5l0,0   C1393.7,764.9,1400.2,803.5,1402.1,843.4L1402.1,843.4z M566.8,431.5c-0.9,5.1-1.4,9.8-1.5,13.9c-10.9,6.4-21.9,14.1-32.4,22.9   c-10.5,8.9-20,18.3-28.2,27.9c-4-0.6-8.7-0.9-13.9-0.9v0C514.1,471.8,539.5,450.4,566.8,431.5z M473.6,513.6   c7-1.7,13.7-2.3,19.5-2.2c-10.5,15-18,30.1-22,44.2c-22.8,13-43.5,28.5-62,46.6l0,0C427.5,570.5,449.1,540.7,473.6,513.6   L473.6,513.6z"/>
</g>
</svg>